# xmcd
#
# Track frame offsets:
# 150
# 17415
# 37433
# 50843
# 66709
# 80851
# 85487
# 99360
# 114139
# 133028
#
# Disc length: 2089 seconds
#
#
# Revision: 0
# Processed by: cddbd v1.5.1PL0 Copyright (c) Steve Scherf et al.
# Submitted via: FreeRIP 2.91 
#
DISCID=8f08270a
DTITLE=Peter Nordlund and The Midnight Blues - Mosquitos and Moonshine
DYEAR=1999
DGENRE=Blues
TTITLE0=So Help Me Honey
TTITLE1=Mosquitos and Moonshine
TTITLE2=i Won't Let You Go
TTITLE3=Lend Me Your Ears
TTITLE4=The River Runs Deep
TTITLE5=Rich Mans Blues
TTITLE6=To Hell And Back
TTITLE7=What A Lovely Day
TTITLE8=Malted Milk
TTITLE9=Midnight Blues
EXTD=
EXTT0=
EXTT1=
EXTT2=
EXTT3=
EXTT4=
EXTT5=
EXTT6=
EXTT7=
EXTT8=
EXTT9=
PLAYORDER=
